<svg xmlns="http://www.w3.org/2000/svg" viewBox="156 780 1696 488">
  <g id="text">
    <path id="Z" fill="#e42b2a" d="M169 883h262v59l-168 220h172v72H159v-61l168-220H170l-1-1Z"/>
    <path id="J" fill="#e42b2a" d="M608 883h81v238l-3 25-7 24-8 16-10 14-14 14-14 9-9 5-14 5-5 2-19 3h-28l-14-2-10-3-7-1-16-8-10-6-13-10-15-15-4-5 2-4 51-51 4 2 3 6 11 12 11 7 9 3h15l8-2 10-6 5-6 5-9 2-8 1-11 1-237Z"/>
    <path id="I" fill="#e42b2a" d="M770 884h80v350h-80Z"/>
    <path id="T" fill="#e42b2a" d="M908 884h289l1 72h-105v278h-80V956H908Z"/>
  </g>
  <g id="mark">
    <path id="stroke" fill="#e42b2a" d="M1425 783h321l90 127v7l-127 188h136v2l3 1 1 7-102 149h-323l-89-127v-7l129-189h-142l-2-2v-6l100-148Zm12 25-72 105v2h279l74-107Zm303 12-195 284v2h131l131-190-65-96Zm-246 121-129 191 63 94h3l194-282v-3Zm32 192-74 106v2h279l73-105v-3Z"/>
    <path id="fill" fill="#fff" d="M1365 1132l129-191h131v3l-194 282h-3zM1452 1239l74-106h278v3l-73 105h-279zM1365 913l72-105h281l-74 107h-279zM1545 1104l195-284h2l65 96-131 190h-131z"/>
  </g>
</svg>
